<?xml version="1.0" encoding="UTF-8"?><svg id="Layer_2" xmlns="http://www.w3.org/2000/svg" viewBox="0 0 195.83 42.41"><defs><style>.cls-1{fill:none;stroke:#ffe400;stroke-miterlimit:10;stroke-width:.75px;}</style></defs><g id="Layer_1-2"><path class="cls-1" d="M.38,35.78c0-10.64,5.1-15.24,17.67-16.95l6.15-.94c4.16-.55,5.93-1.61,5.93-3.71,0-2.49-2.77-3.99-6.98-3.99-5.15,0-12.24,2.38-17.06,5.82L1.32,7.3C7.02,2.98,16.61.38,25.03.38c11.14,0,19.11,4.54,19.11,13.57,0,6.98-4.27,10.36-14.4,11.63l-7.04,1c-5.65.83-7.81,2.33-7.81,5.54h29.86v8.92H.38v-5.26Z"/><path class="cls-1" d="M48.35,21.21C48.35,8.91,58.94.38,73.84.38s25.49,8.53,25.49,20.83-10.58,20.83-25.49,20.83-25.49-8.53-25.49-20.83ZM84.87,21.21c0-6.48-4.49-10.75-11.03-10.75s-11.03,4.27-11.03,10.75,4.49,10.75,11.03,10.75,11.03-4.27,11.03-10.75Z"/><path class="cls-1" d="M102.98,35.78c0-10.64,5.1-15.24,17.67-16.95l6.15-.94c4.16-.55,5.93-1.61,5.93-3.71,0-2.49-2.77-3.99-6.98-3.99-5.15,0-12.24,2.38-17.06,5.82l-4.76-8.7c5.71-4.32,15.29-6.93,23.71-6.93,11.14,0,19.11,4.54,19.11,13.57,0,6.98-4.27,10.36-14.41,11.63l-7.04,1c-5.65.83-7.81,2.33-7.81,5.54h29.86v8.92h-44.38v-5.26Z"/><path class="cls-1" d="M176.95,33.51h-28.09v-7.04L171.41,1.37h19.56v23.55h4.49v8.59h-4.49v7.54h-14.02v-7.54ZM176.95,24.92v-14.29h-.06l-13.02,14.29h13.08Z"/></g></svg>