<?xml version="1.0" encoding="UTF-8"?><svg id="Layer_2" xmlns="http://www.w3.org/2000/svg" viewBox="0 0 120.65 45.4"><defs><style>.cls-1{fill:none;stroke:#ffe400;stroke-miterlimit:10;stroke-width:.75px;}</style></defs><g id="Layer_1-2"><path class="cls-1" d="M.38,1.83h29.67c16.2,0,25.24,7.46,25.24,20.87s-9.03,20.87-25.24,20.87H.38V1.83ZM27.95,33.25c8.04,0,12.59-3.79,12.59-10.55s-4.55-10.61-12.59-10.61h-12.77v21.16h12.77Z"/><path class="cls-1" d="M59.13,22.7C59.13,9.29,71.37.38,89.68.38s30.6,8.92,30.6,22.32-12.24,22.32-30.6,22.32-30.54-8.92-30.54-22.32ZM105.06,22.7c0-6.94-6.24-11.6-15.39-11.6s-15.33,4.66-15.33,11.6,6.18,11.6,15.33,11.6,15.39-4.66,15.39-11.6Z"/></g></svg>