<?xml version="1.0" encoding="UTF-8"?><svg id="Layer_2" xmlns="http://www.w3.org/2000/svg" viewBox="0 0 140.78 44.58"><defs><style>.cls-1{fill:none;stroke:#ffe400;stroke-miterlimit:10;stroke-width:.75px;}</style></defs><g id="Layer_1-2"><path class="cls-1" d="M.38,1.42h18.3l22.44,27.22h.06V1.42h14.34v41.73h-18.24L14.77,15.59h-.06v27.57H.38V1.42Z"/><path class="cls-1" d="M61.35,1.42h15.1v41.73h-15.1V1.42Z"/><path class="cls-1" d="M81.28,22.29c0-13.41,11.13-21.92,28.68-21.92,13.35,0,23.61,5.77,26.4,14.92l-13.81,2.91c-1.4-4.37-6.18-7.11-12.18-7.11-8.45,0-13.87,4.37-13.87,11.19s6.06,11.19,15.62,11.19c7.52,0,13-3.21,14.22-8.28l13.99,2.51c-2.21,10.08-13.29,16.5-28.62,16.5-18.59,0-30.43-8.1-30.43-21.92Z"/></g></svg>