<?xml version="1.0" encoding="UTF-8"?><svg id="Layer_2" xmlns="http://www.w3.org/2000/svg" viewBox="0 0 416.2 44.99"><defs><style>.cls-1{fill:none;stroke:#ffe400;stroke-miterlimit:10;stroke-width:.75px;}</style></defs><g id="Layer_1-2"><path class="cls-1" d="M34.18,37.5l-2.62-4.37c-1.75-2.45-4.31-3.61-7.05-3.61h-8.92v13.87H.38V1.66h35.09c11.19,0,17.6,4.84,17.6,13.23,0,6.24-4.43,10.61-12.07,12.07v.06c1.4.52,2.68,1.63,3.67,3.15l2.97,4.49c.76,1.05,1.75,1.75,3.38,1.75.99,0,2.39-.52,3.09-1.34l2.56,6.12c-2.27,1.98-6.82,3.38-10.67,3.38-6.29,0-9.44-3.61-11.83-7.05ZM30.92,20.95c4.37,0,6.94-1.92,6.94-5.13s-2.56-5.19-6.94-5.19h-15.33v10.32h15.33Z"/><path class="cls-1" d="M59.6,1.66h44.01v9.44h-29.26v6.99h26.93v8.1h-26.93v7.75h29.84v9.44h-44.59V1.66Z"/><path class="cls-1" d="M106.52,37.33l5.25-9.03c4.84,3.85,13.87,6.65,21.86,6.65,5.89,0,9.62-1.4,9.62-3.56,0-1.81-2.68-2.91-9.04-3.61l-7.69-.87c-13.17-1.4-18.83-5.07-18.83-12.47,0-8.98,10.14-14.05,25.01-14.05,8.8,0,17.08,2.1,22.21,5.42l-4.25,8.74c-4.55-3.03-11.42-4.95-17.84-4.9-5.95.06-10.32,1.46-10.38,3.67,0,1.57,2.33,2.56,7.69,3.09l7.75.82c14.11,1.46,20.17,5.3,20.17,12.88.06,8.63-9.85,14.51-25.18,14.51-10.03,0-20.75-2.97-26.35-7.29Z"/><path class="cls-1" d="M173.85,12.38h-16.26V1.66h47.74v10.73h-16.26v31.01h-15.21V12.38Z"/><path class="cls-1" d="M208.77,1.66h15.1v41.73h-15.1V1.66Z"/><path class="cls-1" d="M226.72,1.66h15.45l11.95,30.02h.12l11.83-30.02h16.84l12.01,30.02h.06l11.83-30.02h15.39l-18.19,41.73h-17.08l-12.36-29.96h-.12l-12.47,29.96h-17.08L226.72,1.66Z"/><path class="cls-1" d="M334.27,1.66h17.66l20.34,41.73h-15.8l-3.26-7.29h-20.81l-3.21,7.29h-15.74L334.27,1.66ZM350.3,27.54l-7.34-16.5h-.12l-7.46,16.5h14.92Z"/><path class="cls-1" d="M375.25,1.66h15.21v30.6h25.36v11.13h-40.57V1.66Z"/></g></svg>