<?xml version="1.0" encoding="UTF-8"?><svg id="Layer_2" xmlns="http://www.w3.org/2000/svg" viewBox="0 0 368.47 44.99"><defs><style>.cls-1{fill:none;stroke:#ffe400;stroke-miterlimit:10;stroke-width:.75px;}</style></defs><g id="Layer_1-2"><path class="cls-1" d="M.49,37.33l5.25-9.03c4.84,3.85,13.87,6.65,21.86,6.65,5.89,0,9.62-1.4,9.62-3.56,0-1.81-2.68-2.91-9.03-3.61l-7.69-.87C7.31,25.5,1.66,21.83,1.66,14.42,1.66,5.45,11.8.38,26.66.38c8.8,0,17.08,2.1,22.21,5.42l-4.26,8.74c-4.55-3.03-11.42-4.95-17.84-4.9-5.95.06-10.32,1.46-10.38,3.67,0,1.57,2.33,2.56,7.69,3.09l7.75.82c14.11,1.46,20.17,5.3,20.17,12.88.06,8.63-9.85,14.51-25.18,14.51-10.03,0-20.75-2.97-26.35-7.29Z"/><path class="cls-1" d="M55.52,24.16V1.66h15.21v21.68c0,6.76,4.49,10.08,11.66,10.08s11.6-3.32,11.6-10.08V1.66h15.16v22.5c0,13.06-9.91,20.28-26.81,20.28s-26.81-7.23-26.81-20.28Z"/><path class="cls-1" d="M114.39,1.66h19.7l14.46,28.33h.12l14.28-28.33h19.93v41.73h-14.34v-26.17h-.12l-13.06,26.17h-13l-13.52-26.17h-.12v26.17h-14.34V1.66Z"/><path class="cls-1" d="M188.72,1.66h19.7l14.46,28.33h.12l14.28-28.33h19.93v41.73h-14.34v-26.17h-.12l-13.06,26.17h-13l-13.52-26.17h-.12v26.17h-14.34V1.66Z"/><path class="cls-1" d="M263.04,1.66h44.01v9.44h-29.26v6.99h26.93v8.1h-26.93v7.75h29.84v9.44h-44.59V1.66Z"/><path class="cls-1" d="M345.52,37.5l-2.62-4.37c-1.75-2.45-4.31-3.61-7.05-3.61h-8.92v13.87h-15.21V1.66h35.09c11.19,0,17.6,4.84,17.6,13.23,0,6.24-4.43,10.61-12.07,12.07v.06c1.4.52,2.68,1.63,3.67,3.15l2.97,4.49c.76,1.05,1.75,1.75,3.38,1.75.99,0,2.39-.52,3.09-1.34l2.56,6.12c-2.27,1.98-6.82,3.38-10.67,3.38-6.29,0-9.44-3.61-11.83-7.05ZM342.26,20.95c4.37,0,6.94-1.92,6.94-5.13s-2.56-5.19-6.94-5.19h-15.33v10.32h15.33Z"/></g></svg>