<?xml version="1.0" encoding="UTF-8"?><svg id="Layer_2" xmlns="http://www.w3.org/2000/svg" viewBox="0 0 439.5 45.4"><defs><style>.cls-1{fill:none;stroke:#ffe400;stroke-miterlimit:10;stroke-width:.75px;}</style></defs><g id="Layer_1-2"><path class="cls-1" d="M.38,32.2L28.7,11.68H.96l.23-9.85h44.82l-.17,11.54-28.33,20.34h28.91v9.85H.38v-11.37Z"/><path class="cls-1" d="M85.07,37.68l-2.62-4.37c-1.75-2.45-4.31-3.61-7.05-3.61h-8.92v13.87h-15.21V1.83h35.09c11.19,0,17.6,4.84,17.6,13.23,0,6.24-4.43,10.61-12.07,12.07v.06c1.4.52,2.68,1.63,3.67,3.15l2.97,4.49c.76,1.05,1.75,1.75,3.38,1.75.99,0,2.39-.52,3.09-1.34l2.56,6.12c-2.27,1.98-6.82,3.38-10.67,3.38-6.29,0-9.44-3.61-11.83-7.05ZM81.81,21.13c4.37,0,6.94-1.92,6.94-5.13s-2.56-5.19-6.94-5.19h-15.33v10.32h15.33Z"/><path class="cls-1" d="M108.74,22.7c0-13.41,12.24-22.32,30.54-22.32s30.6,8.92,30.6,22.32-12.24,22.32-30.6,22.32-30.54-8.92-30.54-22.32ZM154.67,22.7c0-6.94-6.24-11.6-15.39-11.6s-15.33,4.66-15.33,11.6,6.18,11.6,15.33,11.6,15.39-4.66,15.39-11.6Z"/><path class="cls-1" d="M174.67,1.83h35.38c9.97,0,15.91,4.26,15.91,11.48,0,4.2-2.51,7.52-6.7,8.98v.12c4.9,1.28,7.87,4.95,7.87,9.68,0,7.17-5.89,11.48-15.91,11.48h-36.55V1.83ZM205.85,35.23c3.73,0,6.06-1.75,6.06-4.49s-2.33-4.6-6.06-4.6h-16.03v9.09h16.03ZM205.04,18.68c3.55,0,5.71-1.57,5.71-4.25s-2.16-4.26-5.71-4.26h-15.16v8.51h15.16Z"/><path class="cls-1" d="M231.45,1.83h15.1v41.73h-15.1V1.83Z"/><path class="cls-1" d="M252.37,1.83h44.01v9.44h-29.26v6.99h26.93v8.1h-26.93v7.75h29.84v9.44h-44.59V1.83Z"/><path class="cls-1" d="M301.05,1.83h18.3l22.44,27.22h.06V1.83h14.34v41.73h-18.24l-22.5-27.57h-.06v27.57h-14.34V1.83Z"/><path class="cls-1" d="M362.02,1.83h15.1v41.73h-15.1V1.83Z"/><path class="cls-1" d="M400.9,1.83h17.66l20.34,41.73h-15.8l-3.26-7.29h-20.81l-3.21,7.29h-15.74L400.9,1.83ZM416.93,27.71l-7.34-16.5h-.12l-7.46,16.5h14.92Z"/></g></svg>